<?xml version="1.0" standalone="no"?>
<!DOCTYPE svg PUBLIC "-//W3C//DTD SVG 20010904//EN"
 "http://www.w3.org/TR/2001/REC-SVG-20010904/DTD/svg10.dtd">
<svg version="1.0" xmlns="http://www.w3.org/2000/svg"
 width="64.000000pt" height="64.000000pt" viewBox="0 0 64.000000 64.000000"
 preserveAspectRatio="xMidYMid meet">

<g transform="translate(0.000000,64.000000) scale(0.100000,-0.100000)"
fill="#000000" stroke="none">
<path d="M77 612 c-15 -16 -17 -46 -17 -206 0 -157 -3 -200 -21 -272 -33 -130
-47 -124 281 -124 257 0 268 1 286 21 18 20 18 22 -4 107 -19 75 -22 114 -22
273 0 167 -2 188 -18 202 -16 15 -48 17 -244 17 -205 0 -226 -2 -241 -18z
m471 -14 c8 -8 12 -65 12 -190 l0 -178 -240 0 -240 0 0 178 c0 125 4 182 12
190 17 17 439 17 456 0z m-123 -508 c0 -12 -19 -16 -99 -18 -97 -3 -126 4
-111 27 4 8 41 11 108 9 83 -2 102 -6 102 -18z"/>
</g>
</svg>
