<?xml version="1.0" standalone="no"?>
<!DOCTYPE svg PUBLIC "-//W3C//DTD SVG 20010904//EN"
 "http://www.w3.org/TR/2001/REC-SVG-20010904/DTD/svg10.dtd">
<svg version="1.0" xmlns="http://www.w3.org/2000/svg"
 width="711.000000pt" height="400.000000pt" viewBox="0 0 711.000000 400.000000"
 preserveAspectRatio="xMidYMid meet">

<g transform="translate(0.000000,400.000000) scale(0.100000,-0.100000)"
fill="#000000" stroke="none">
<path d="M993 3831 c-26 -12 -52 -35 -70 -62 l-28 -43 -3 -1708 -2 -1708 2660
0 2660 0 0 1699 c0 1177 -3 1708 -11 1728 -14 38 -57 83 -96 99 -27 12 -434
14 -2550 14 -2452 0 -2519 -1 -2560 -19z m2588 -67 c17 -21 0 -49 -32 -49 -27
0 -37 28 -19 50 16 19 34 19 51 -1z m2469 -1684 l0 -1560 -2495 0 -2495 0 0
1560 0 1560 2495 0 2495 0 0 -1560z"/>
<path d="M280 266 c0 -34 97 -69 259 -93 109 -17 294 -18 3016 -18 2722 0
2907 1 3016 18 162 24 259 59 259 93 0 12 -491 14 -3275 14 -2784 0 -3275 -2
-3275 -14z"/>
</g>
</svg>
