<?xml version="1.0" standalone="no"?>
<!DOCTYPE svg PUBLIC "-//W3C//DTD SVG 20010904//EN"
 "http://www.w3.org/TR/2001/REC-SVG-20010904/DTD/svg10.dtd">
<svg version="1.0" xmlns="http://www.w3.org/2000/svg"
 width="100.000000pt" height="100.000000pt" viewBox="0 0 100.000000 100.000000"
 preserveAspectRatio="xMidYMid meet">

<g transform="translate(0.000000,100.000000) scale(0.100000,-0.100000)"
fill="#000000" stroke="none">
<path d="M362 728 c-19 -19 -17 -441 2 -457 9 -8 56 -11 142 -9 l129 3 9 28
c18 49 0 61 -95 67 l-84 5 -3 48 -3 47 43 0 c48 0 68 13 68 45 0 32 -20 45
-68 45 l-43 0 3 43 3 42 84 5 c95 6 113 18 95 67 l-9 28 -130 3 c-93 2 -134
-1 -143 -10z"/>
</g>
</svg>
